<svg xmlns="http://www.w3.org/2000/svg" xmlns:xlink="http://www.w3.org/1999/xlink" width="500" zoomAndPan="magnify" viewBox="0 0 375 374.999991" height="500" preserveAspectRatio="xMidYMid meet" version="1.0"><path fill="#ffffff" d="M 156.796875 282.328125 C 162.164062 282.332031 167.511719 281.992188 172.835938 281.308594 C 178.160156 280.621094 183.417969 279.597656 188.609375 278.230469 C 193.804688 276.867188 198.886719 275.175781 203.859375 273.152344 C 208.832031 271.132812 213.65625 268.800781 218.328125 266.15625 L 270.390625 318.21875 C 271.175781 319.003906 271.992188 319.746094 272.851562 320.449219 C 273.707031 321.148438 274.59375 321.808594 275.515625 322.425781 C 276.4375 323.039062 277.386719 323.609375 278.363281 324.132812 C 279.339844 324.652344 280.339844 325.125 281.363281 325.550781 C 282.386719 325.972656 283.425781 326.347656 284.488281 326.667969 C 285.546875 326.988281 286.621094 327.257812 287.707031 327.472656 C 288.792969 327.691406 289.886719 327.851562 290.988281 327.960938 C 292.09375 328.070312 293.195312 328.125 294.304688 328.125 C 295.414062 328.125 296.515625 328.070312 297.621094 327.960938 C 298.722656 327.851562 299.816406 327.691406 300.902344 327.472656 C 301.988281 327.257812 303.0625 326.988281 304.121094 326.667969 C 305.183594 326.347656 306.222656 325.972656 307.246094 325.550781 C 308.269531 325.125 309.269531 324.652344 310.246094 324.132812 C 311.222656 323.609375 312.171875 323.039062 313.09375 322.425781 C 314.015625 321.808594 314.902344 321.148438 315.757812 320.449219 C 316.617188 319.746094 317.4375 319.003906 318.21875 318.21875 C 319.003906 317.4375 319.746094 316.617188 320.449219 315.757812 C 321.148438 314.902344 321.808594 314.015625 322.425781 313.09375 C 323.039062 312.171875 323.609375 311.222656 324.132812 310.246094 C 324.652344 309.269531 325.125 308.269531 325.550781 307.246094 C 325.972656 306.222656 326.347656 305.183594 326.667969 304.121094 C 326.988281 303.0625 327.257812 301.988281 327.472656 300.902344 C 327.691406 299.816406 327.851562 298.722656 327.960938 297.621094 C 328.070312 296.515625 328.125 295.414062 328.125 294.304688 C 328.125 293.195312 328.070312 292.09375 327.960938 290.988281 C 327.851562 289.886719 327.691406 288.792969 327.472656 287.707031 C 327.257812 286.621094 326.988281 285.546875 326.667969 284.488281 C 326.347656 283.425781 325.972656 282.386719 325.550781 281.363281 C 325.125 280.339844 324.652344 279.339844 324.132812 278.363281 C 323.609375 277.386719 323.039062 276.4375 322.425781 275.515625 C 321.808594 274.59375 321.148438 273.707031 320.449219 272.851562 C 319.746094 271.992188 319.003906 271.175781 318.21875 270.390625 L 266.15625 218.328125 C 267.078125 216.695312 267.960938 215.039062 268.808594 213.363281 C 269.652344 211.691406 270.460938 210 271.234375 208.289062 C 272.003906 206.578125 272.734375 204.851562 273.429688 203.109375 C 274.121094 201.363281 274.773438 199.605469 275.390625 197.835938 C 276.003906 196.0625 276.578125 194.277344 277.113281 192.476562 C 277.648438 190.679688 278.140625 188.871094 278.59375 187.050781 C 279.046875 185.230469 279.457031 183.398438 279.828125 181.558594 C 280.199219 179.722656 280.53125 177.875 280.820312 176.023438 C 281.105469 174.167969 281.351562 172.308594 281.558594 170.445312 C 281.761719 168.578125 281.925781 166.710938 282.046875 164.839844 C 282.167969 162.964844 282.246094 161.09375 282.285156 159.21875 C 282.320312 157.339844 282.316406 155.464844 282.269531 153.589844 C 282.222656 151.714844 282.132812 149.839844 282.003906 147.96875 C 281.871094 146.097656 281.699219 144.230469 281.484375 142.367188 C 281.269531 140.503906 281.011719 138.644531 280.714844 136.792969 C 280.417969 134.941406 280.078125 133.097656 279.695312 131.261719 C 279.316406 129.421875 278.894531 127.597656 278.429688 125.777344 C 277.96875 123.960938 277.464844 122.152344 276.921875 120.359375 C 276.375 118.5625 275.792969 116.78125 275.167969 115.011719 C 274.546875 113.242188 273.882812 111.488281 273.179688 109.746094 C 272.476562 108.007812 271.738281 106.285156 270.957031 104.578125 C 270.175781 102.871094 269.359375 101.183594 268.503906 99.515625 C 267.648438 97.84375 266.757812 96.195312 265.828125 94.566406 C 264.898438 92.9375 263.933594 91.328125 262.929688 89.742188 C 261.929688 88.15625 260.894531 86.59375 259.820312 85.050781 C 258.75 83.511719 257.644531 81.996094 256.503906 80.507812 C 255.367188 79.015625 254.191406 77.554688 252.988281 76.117188 C 251.78125 74.679688 250.546875 73.269531 249.277344 71.886719 C 248.007812 70.503906 246.710938 69.148438 245.382812 67.828125 C 244.050781 66.503906 242.695312 65.207031 241.308594 63.945312 C 239.921875 62.683594 238.503906 61.449219 237.0625 60.25 C 235.621094 59.050781 234.152344 57.886719 232.65625 56.75 C 231.164062 55.617188 229.644531 54.519531 228.101562 53.453125 C 226.554688 52.386719 224.988281 51.355469 223.398438 50.359375 C 221.808594 49.363281 220.199219 48.40625 218.5625 47.484375 C 216.929688 46.558594 215.277344 45.671875 213.605469 44.824219 C 211.933594 43.976562 210.242188 43.164062 208.53125 42.390625 C 206.824219 41.617188 205.097656 40.882812 203.355469 40.1875 C 201.613281 39.492188 199.855469 38.835938 198.085938 38.21875 C 196.3125 37.601562 194.527344 37.023438 192.730469 36.488281 C 190.933594 35.949219 189.125 35.453125 187.304688 35 C 185.484375 34.542969 183.65625 34.128906 181.816406 33.753906 C 179.980469 33.378906 178.132812 33.046875 176.28125 32.757812 C 174.425781 32.464844 172.566406 32.214844 170.703125 32.007812 C 168.839844 31.800781 166.96875 31.636719 165.097656 31.511719 C 163.226562 31.386719 161.351562 31.304688 159.476562 31.265625 C 157.601562 31.226562 155.726562 31.226562 153.851562 31.273438 C 151.976562 31.316406 150.101562 31.402344 148.230469 31.53125 C 146.359375 31.660156 144.492188 31.828125 142.625 32.042969 C 140.761719 32.253906 138.90625 32.507812 137.050781 32.800781 C 135.199219 33.097656 133.355469 33.433594 131.515625 33.8125 C 129.679688 34.191406 127.851562 34.609375 126.03125 35.070312 C 124.214844 35.53125 122.40625 36.03125 120.609375 36.570312 C 118.8125 37.113281 117.03125 37.695312 115.261719 38.316406 C 113.488281 38.9375 111.734375 39.597656 109.992188 40.296875 C 108.253906 40.996094 106.53125 41.734375 104.820312 42.511719 C 103.113281 43.289062 101.425781 44.101562 99.753906 44.957031 C 98.082031 45.808594 96.433594 46.699219 94.800781 47.625 C 93.171875 48.550781 91.5625 49.515625 89.972656 50.515625 C 88.386719 51.515625 86.820312 52.546875 85.28125 53.617188 C 83.738281 54.6875 82.222656 55.789062 80.730469 56.925781 C 79.238281 58.0625 77.769531 59.234375 76.332031 60.4375 C 74.890625 61.640625 73.480469 62.875 72.097656 64.140625 C 70.710938 65.40625 69.355469 66.703125 68.03125 68.03125 C 65.851562 70.210938 63.753906 72.46875 61.742188 74.800781 C 59.726562 77.136719 57.804688 79.539062 55.96875 82.015625 C 54.132812 84.492188 52.386719 87.03125 50.738281 89.636719 C 49.089844 92.242188 47.539062 94.902344 46.085938 97.621094 C 44.632812 100.339844 43.28125 103.105469 42.03125 105.925781 C 40.78125 108.742188 39.640625 111.601562 38.601562 114.503906 C 37.5625 117.40625 36.632812 120.34375 35.808594 123.316406 C 34.988281 126.285156 34.277344 129.28125 33.675781 132.304688 C 33.074219 135.328125 32.582031 138.371094 32.207031 141.429688 C 31.828125 144.488281 31.566406 147.558594 31.414062 150.636719 C 31.261719 153.714844 31.222656 156.796875 31.300781 159.878906 C 31.375 162.957031 31.566406 166.035156 31.867188 169.101562 C 32.167969 172.167969 32.582031 175.222656 33.109375 178.257812 C 33.636719 181.296875 34.277344 184.308594 35.023438 187.296875 C 35.773438 190.289062 36.632812 193.246094 37.597656 196.175781 C 38.566406 199.101562 39.636719 201.988281 40.816406 204.835938 C 41.996094 207.683594 43.28125 210.484375 44.667969 213.238281 C 46.050781 215.992188 47.539062 218.691406 49.121094 221.332031 C 50.707031 223.976562 52.386719 226.558594 54.160156 229.078125 C 55.9375 231.601562 57.800781 234.050781 59.757812 236.433594 C 61.714844 238.816406 63.753906 241.125 65.878906 243.355469 C 68.003906 245.589844 70.210938 247.742188 72.492188 249.808594 C 74.777344 251.878906 77.132812 253.863281 79.5625 255.761719 C 81.996094 257.65625 84.492188 259.460938 87.054688 261.171875 C 89.617188 262.886719 92.238281 264.5 94.921875 266.019531 C 97.601562 267.539062 100.335938 268.957031 103.125 270.277344 C 105.910156 271.59375 108.742188 272.808594 111.617188 273.917969 C 114.492188 275.027344 117.40625 276.027344 120.355469 276.921875 C 123.304688 277.816406 126.285156 278.601562 129.292969 279.277344 C 132.300781 279.953125 135.328125 280.519531 138.378906 280.96875 C 141.425781 281.421875 144.488281 281.761719 147.5625 281.988281 C 150.636719 282.214844 153.714844 282.328125 156.796875 282.328125 Z M 90.125 90.125 C 91.398438 88.851562 92.707031 87.617188 94.050781 86.421875 C 95.394531 85.222656 96.769531 84.066406 98.179688 82.945312 C 99.589844 81.828125 101.03125 80.75 102.503906 79.714844 C 103.976562 78.679688 105.476562 77.683594 107.003906 76.734375 C 108.53125 75.785156 110.085938 74.878906 111.667969 74.019531 C 113.25 73.15625 114.851562 72.339844 116.480469 71.574219 C 118.105469 70.804688 119.753906 70.082031 121.425781 69.40625 C 123.09375 68.730469 124.777344 68.105469 126.484375 67.527344 C 128.1875 66.949219 129.90625 66.417969 131.640625 65.941406 C 133.378906 65.460938 135.125 65.03125 136.882812 64.652344 C 138.644531 64.269531 140.414062 63.941406 142.191406 63.664062 C 143.96875 63.386719 145.753906 63.160156 147.542969 62.984375 C 149.335938 62.804688 151.128906 62.683594 152.929688 62.609375 C 154.726562 62.535156 156.527344 62.511719 158.328125 62.542969 C 160.125 62.574219 161.921875 62.65625 163.71875 62.789062 C 165.511719 62.921875 167.304688 63.105469 169.085938 63.339844 C 170.871094 63.574219 172.648438 63.859375 174.417969 64.199219 C 176.183594 64.535156 177.941406 64.921875 179.6875 65.359375 C 181.433594 65.796875 183.164062 66.285156 184.882812 66.820312 C 186.601562 67.359375 188.300781 67.945312 189.988281 68.578125 C 191.671875 69.210938 193.335938 69.894531 194.980469 70.625 C 196.625 71.355469 198.25 72.128906 199.851562 72.953125 C 201.453125 73.777344 203.027344 74.644531 204.578125 75.554688 C 206.128906 76.46875 207.652344 77.425781 209.148438 78.425781 C 210.648438 79.425781 212.113281 80.46875 213.550781 81.550781 C 214.988281 82.636719 216.390625 83.761719 217.761719 84.925781 C 219.136719 86.089844 220.472656 87.292969 221.777344 88.535156 C 223.078125 89.777344 224.347656 91.054688 225.578125 92.367188 C 226.808594 93.683594 228 95.03125 229.152344 96.410156 C 230.304688 97.792969 231.417969 99.207031 232.488281 100.652344 C 233.5625 102.101562 234.589844 103.574219 235.578125 105.078125 C 236.566406 106.585938 237.507812 108.117188 238.410156 109.675781 C 239.308594 111.234375 240.164062 112.816406 240.972656 114.425781 C 241.78125 116.035156 242.542969 117.664062 243.257812 119.316406 C 243.976562 120.964844 244.644531 122.636719 245.261719 124.328125 C 245.882812 126.015625 246.453125 127.722656 246.976562 129.445312 C 247.5 131.167969 247.972656 132.902344 248.394531 134.652344 C 248.816406 136.402344 249.1875 138.164062 249.511719 139.933594 C 249.832031 141.703125 250.105469 143.484375 250.324219 145.269531 C 250.542969 147.054688 250.710938 148.847656 250.832031 150.644531 C 250.949219 152.4375 251.015625 154.238281 251.027344 156.035156 C 251.042969 157.835938 251.003906 159.636719 250.917969 161.433594 C 250.828125 163.230469 250.6875 165.023438 250.496094 166.8125 C 250.304688 168.605469 250.0625 170.386719 249.769531 172.164062 C 249.476562 173.9375 249.132812 175.703125 248.738281 177.460938 C 248.34375 179.214844 247.898438 180.960938 247.40625 182.691406 C 246.910156 184.421875 246.367188 186.136719 245.773438 187.835938 C 245.179688 189.535156 244.539062 191.21875 243.851562 192.878906 C 243.164062 194.542969 242.425781 196.183594 241.644531 197.804688 C 240.859375 199.425781 240.03125 201.023438 239.15625 202.59375 C 238.28125 204.167969 237.363281 205.714844 236.402344 207.234375 C 235.4375 208.757812 234.433594 210.25 233.382812 211.710938 C 232.335938 213.175781 231.246094 214.605469 230.113281 216.007812 C 228.984375 217.40625 227.816406 218.773438 226.605469 220.109375 C 225.398438 221.441406 224.152344 222.738281 222.867188 224 C 221.585938 225.261719 220.265625 226.488281 218.914062 227.675781 C 217.558594 228.859375 216.171875 230.007812 214.753906 231.113281 C 213.335938 232.222656 211.886719 233.289062 210.40625 234.3125 C 208.925781 235.335938 207.417969 236.316406 205.882812 237.253906 C 204.34375 238.191406 202.78125 239.085938 201.195312 239.933594 C 199.609375 240.78125 197.996094 241.585938 196.363281 242.339844 C 194.730469 243.097656 193.078125 243.804688 191.402344 244.46875 C 189.730469 245.128906 188.039062 245.742188 186.328125 246.304688 C 184.621094 246.871094 182.894531 247.386719 181.15625 247.851562 C 179.417969 248.316406 177.667969 248.734375 175.90625 249.097656 C 174.144531 249.464844 172.371094 249.777344 170.589844 250.042969 C 168.8125 250.304688 167.023438 250.519531 165.230469 250.679688 C 163.4375 250.84375 161.644531 250.953125 159.84375 251.011719 C 158.046875 251.070312 156.246094 251.078125 154.445312 251.03125 C 152.648438 250.988281 150.851562 250.894531 149.058594 250.746094 C 147.261719 250.597656 145.472656 250.398438 143.691406 250.152344 C 141.910156 249.902344 140.136719 249.601562 138.371094 249.25 C 136.605469 248.898438 134.851562 248.496094 133.109375 248.042969 C 131.367188 247.59375 129.636719 247.09375 127.925781 246.542969 C 126.210938 245.992188 124.515625 245.390625 122.835938 244.742188 C 121.15625 244.09375 119.496094 243.398438 117.859375 242.65625 C 116.21875 241.914062 114.601562 241.125 113.007812 240.289062 C 111.414062 239.453125 109.84375 238.574219 108.300781 237.648438 C 106.757812 236.722656 105.242188 235.753906 103.753906 234.742188 C 102.265625 233.730469 100.804688 232.675781 99.378906 231.578125 C 97.949219 230.484375 96.554688 229.347656 95.191406 228.171875 C 93.828125 226.996094 92.5 225.785156 91.207031 224.53125 C 89.914062 223.28125 88.65625 221.992188 87.4375 220.667969 C 86.21875 219.34375 85.039062 217.988281 83.894531 216.597656 C 82.753906 215.203125 81.652344 213.78125 80.59375 212.328125 C 79.53125 210.871094 78.515625 209.390625 77.539062 207.875 C 76.5625 206.363281 75.632812 204.824219 74.746094 203.257812 C 73.859375 201.691406 73.015625 200.101562 72.21875 198.488281 C 71.425781 196.875 70.675781 195.238281 69.972656 193.582031 C 69.269531 191.921875 68.617188 190.246094 68.011719 188.550781 C 67.402344 186.859375 66.847656 185.148438 66.339844 183.421875 C 65.828125 181.695312 65.371094 179.953125 64.960938 178.203125 C 64.554688 176.449219 64.195312 174.683594 63.886719 172.910156 C 63.578125 171.136719 63.324219 169.359375 63.117188 167.570312 C 62.910156 165.78125 62.757812 163.988281 62.65625 162.191406 C 62.550781 160.394531 62.5 158.597656 62.5 156.796875 C 62.492188 153.707031 62.632812 150.625 62.929688 147.550781 C 63.226562 144.472656 63.671875 141.421875 64.269531 138.390625 C 64.871094 135.359375 65.617188 132.363281 66.511719 129.40625 C 67.40625 126.449219 68.445312 123.546875 69.625 120.691406 C 70.808594 117.835938 72.128906 115.046875 73.589844 112.324219 C 75.046875 109.601562 76.636719 106.957031 78.359375 104.390625 C 80.078125 101.824219 81.921875 99.347656 83.886719 96.964844 C 85.855469 94.582031 87.933594 92.300781 90.125 90.125 Z M 90.125 90.125 " fill-opacity="1" fill-rule="nonzero"/></svg>